<?xml version="1.0" standalone="no"?>
<!DOCTYPE svg PUBLIC "-//W3C//DTD SVG 1.1//EN" "http://www.w3.org/Graphics/SVG/1.1/DTD/svg11.dtd" >
<!--
2013-9-30: Created.
-->
<svg>
<metadata>
Created by iconfont
</metadata>
<defs>

<font id="iconfont" horiz-adv-x="1024" >
  <font-face
    font-family="iconfont"
    font-weight="500"
    font-stretch="normal"
    units-per-em="1024"
    ascent="896"
    descent="-128"
  />
    <missing-glyph />
    
    <glyph glyph-name="x" unicode="x" horiz-adv-x="1001"
d="M281 543q-27 -1 -53 -1h-83q-18 0 -36.5 -6t-32.5 -18.5t-23 -32t-9 -45.5v-76h912v41q0 16 -0.5 30t-0.5 18q0 13 -5 29t-17 29.5t-31.5 22.5t-49.5 9h-133v-97h-438v97zM955 310v-52q0 -23 0.5 -52t0.5 -58t-10.5 -47.5t-26 -30t-33 -16t-31.5 -4.5q-14 -1 -29.5 -0.5
t-29.5 0.5h-32l-45 128h-439l-44 -128h-29h-34q-20 0 -45 1q-25 0 -41 9.5t-25.5 23t-13.5 29.5t-4 30v167h911zM163 247q-12 0 -21 -8.5t-9 -21.5t9 -21.5t21 -8.5q13 0 22 8.5t9 21.5t-9 21.5t-22 8.5zM316 123q-8 -26 -14 -48q-5 -19 -10.5 -37t-7.5 -25t-3 -15t1 -14.5
t9.5 -10.5t21.5 -4h37h67h81h80h64h36q23 0 34 12t2 38q-5 13 -9.5 30.5t-9.5 34.5q-5 19 -11 39h-368zM336 498v228q0 11 2.5 23t10 21.5t20.5 15.5t34 6h188q31 0 51.5 -14.5t20.5 -52.5v-227h-327z" />
    

    
    <glyph glyph-name="jiantou-copy" unicode="&#58923;" d="M672 384l-384-384c-12.8-12.8-12.8-31.999 0-44.799s31.999-12.8 44.799 0l403.2 403.2c6.4 6.4 12.8 19.199 12.8 25.6s0 19.199-6.4 25.599l-409.6 409.6c-12.8 12.8-31.999 12.8-44.799 0s-12.8-31.999 0-44.799l384-390.399z"  horiz-adv-x="1024" />

    
    <glyph glyph-name="fanhui" unicode="&#58890;" d="M354.11818 384.069585l367.955326 380.206348c15.153118 15.653515 14.741749 40.630373-0.925069 55.782467-15.589047 15.114233-40.578184 14.741749-55.782467-0.925069L270.880407 411.498284c-14.792914-15.294334-14.792914-39.564088 0-54.858422l394.485563-407.635047c7.756661-8.000208 18.055215-12.019755 28.353768-12.019755 9.888208 0 19.775392 3.685949 27.428699 11.094686 15.666818 15.153118 16.077164 40.128953 0.925069 55.782467L354.11818 384.069585z"  horiz-adv-x="1024" />

    
    <glyph glyph-name="shangla" unicode="&#58911;" d="M158.3 196.9c9.8-9.8 25.7-9.8 35.5 0l318.8 318.8 317.2-317.2c9.8-9.7 25.6-9.7 35.4 0 9.7 9.8 9.7 25.6 0 35.4L530.3 568.7c-4.9 4.9-11.4 7.3-17.8 7.3-6.5 0-12.9-2.4-17.9-7.3L158.3 232.4C148.6 222.6 148.6 206.7 158.3 196.9L158.3 196.9zM158.3 196.9"  horiz-adv-x="1024" />

    
    <glyph glyph-name="tijiao" unicode="&#59776;" d="M928.238933 731.4688 331.4432 144.3584 87.1168 384.759467l-70.109867-69.102933 314.436267-309.341867L998.4 662.468267 928.238933 731.4688z"  horiz-adv-x="1024" />

    
    <glyph glyph-name="gonggao" unicode="&#58893;" d="M602.368301-127.999994c-7.288471 0-14.456471 2.650353-20.118588 7.770353L289.686891 143.058828 120.485951 143.058828c-48.429176 0-120.470588 32.105412-120.470588 120.470588l0 180.705881c0 48.429176 32.105412 120.470588 120.470588 120.470588l169.140705 0 292.562822 263.348704c8.854588 8.011294 21.564235 9.938823 32.406588 5.12C625.558889 828.29553 632.485948 817.513412 632.485948 805.647059l0-903.529406c0-11.866353-6.927059-22.708706-17.829647-27.527529C610.741006-127.1567 606.524536-127.999994 602.368301-127.999994zM120.485951 504.470591c-57.344 0-60.235294-50.176-60.235294-60.235294l0-180.705881c0-57.283764 50.176-60.235294 60.235294-60.235294l180.705881 0c7.469176 0 14.637176-2.770824 20.118588-7.770353L572.250654-30.238112 572.250654 738.002824 321.370655 512.240943C315.829008 507.241414 308.661008 504.470591 301.191832 504.470591L120.485951 504.470591zM752.956535 534.588237c-7.649882 0-15.420235 2.951529-21.323294 8.794353-11.745882 11.745882-11.745882 30.84047 0 42.586353l120.470588 120.470588c11.745882 11.745882 30.84047 11.745882 42.586353 0s11.745882-30.84047 0-42.586353l-120.470588-120.470588C768.37677 537.539767 760.726888 534.588237 752.956535 534.588237zM933.662416 323.764709l-180.705881 0C736.391829 323.764709 722.838888 337.257415 722.838888 353.882356s13.552941 30.117647 30.117647 30.117647l180.705881 0C950.347593 384.000003 963.780063 370.507297 963.780063 353.882356S950.347593 323.764709 933.662416 323.764709zM873.427123-7.529406c-7.649882 0-15.420235 2.951529-21.323294 8.794353l-120.470588 120.470588c-11.745882 11.745882-11.745882 30.84047 0 42.586353s30.84047 11.745882 42.586353 0l120.470588-120.470588c11.745882-11.745882 11.745882-30.84047 0-42.586353C888.847358-4.577877 881.197475-7.529406 873.427123-7.529406z"  horiz-adv-x="1025" />

    
    <glyph glyph-name="shijian" unicode="&#58924;" d="M725.210382 396.49754h-174.832513v140.718852c0 21.321038-17.056831 38.377869-38.377869 38.377869s-38.377869-17.056831-38.377869-38.377869v-187.625136c4.264208-17.056831 17.056831-29.849453 34.113661-29.849454h217.47459c21.321038 0 38.377869 17.056831 38.377869 38.377869s-17.056831 38.377869-38.377869 38.377869z m140.718852 302.758742c-89.54836 89.54836-213.210382 140.718852-353.929234 140.718852-136.454644 0-264.380874-55.434699-353.929234-140.718852-89.54836-89.54836-144.98306-208.946174-144.98306-341.136611 0-132.190437 55.434699-255.852458 144.98306-341.136611 89.54836-89.54836 213.210382-140.718852 353.929234-140.718852 136.454644 0 264.380874 55.434699 353.929234 140.718852 89.54836 89.54836 144.98306 208.946174 144.98306 341.136611 0 132.190437-55.434699 255.852458-144.98306 341.136611z m-55.434699-631.102731c-76.755738-72.49153-183.360929-119.397814-298.494535-119.397813s-221.738797 46.906284-298.494535 119.397813c-76.755738 72.49153-123.662022 174.832513-123.662021 289.96612s46.906284 217.47459 123.662021 289.96612c76.755738 72.49153 183.360929 119.397814 298.494535 119.397813s221.738797-46.906284 298.494535-119.397813c76.755738-72.49153 123.662022-179.096721 123.662021-289.96612 0-115.133606-46.906284-217.47459-123.662021-289.96612z m-729.179507 643.895354l149.247268 119.397814c17.056831 12.792623 17.056831 38.377869 4.264207 51.170492-12.792623 17.056831-38.377869 17.056831-55.434699 4.264207l-149.247267-119.397814c-17.056831-12.792623-21.321038-38.377869-4.264208-51.170491 12.792623-17.056831 38.377869-17.056831 55.434699-4.264208z m861.369944 0c17.056831-12.792623 42.642076-8.528415 55.434699 4.264208 12.792623 17.056831 8.528415 38.377869-4.264208 51.170491l-149.247267 119.397814c-17.056831 12.792623-42.642076 8.528415-55.434699-4.264207-12.792623-17.056831-12.792623-38.377869 4.264207-51.170492l149.247268-119.397814z"  horiz-adv-x="1024" />

    
    <glyph glyph-name="sousuo" unicode="&#58900;" d="M959.83616-28.03712l-187.35104 187.35104c138.07616 158.53568 132.096 399.72864-18.78016 550.58432a401.28512 401.28512 0 0 1-285.696 118.33344 401.44896 401.44896 0 0 1-285.696-118.33344c-157.53216-157.53216-157.53216-413.81888 0-571.37152a401.408 401.408 0 0 1 285.696-118.33344c102.03136 0 197.98016 37.94944 272.65024 106.51648l186.96192-186.96192 32.21504 32.21504z m-491.8272 94.06464a355.88096 355.88096 0 0 0-253.29664 104.91904c-139.65312 139.65312-139.65312 366.91968 0 506.5728a355.88096 355.88096 0 0 0 253.29664 104.91904c95.70304 0 185.63072-37.25312 253.29664-104.91904 139.65312-139.65312 139.65312-366.91968 0-506.5728a355.81952 355.81952 0 0 0-253.29664-104.91904z"  horiz-adv-x="1024" />

    
    <glyph glyph-name="caidan1" unicode="&#58968;" d="M203.776 591.872h629.248c20.992 0 38.4 17.408 38.4 38.4s-17.408 38.4-38.4 38.4H203.776c-20.992 0-38.4-17.408-38.4-38.4s17.408-38.4 38.4-38.4zM833.024 437.248H203.776c-20.992 0-38.4-17.408-38.4-38.4s17.408-38.4 38.4-38.4h629.248c20.992 0 38.4 17.408 38.4 38.4s-16.896 38.4-38.4 38.4zM833.024 205.312H203.776c-20.992 0-38.4-17.408-38.4-38.4s17.408-38.4 38.4-38.4h629.248c20.992 0 38.4 16.896 38.4 37.888 0.512 10.24-3.584 19.456-10.752 26.624-6.656 8.192-16.896 12.288-27.648 12.288z"  horiz-adv-x="1024" />

    
    <glyph glyph-name="shangla1" unicode="&#58894;" d="M865.7 571.1c-9.8 9.8-25.7 9.8-35.5 0l-318.8-318.8-317.2 317.2c-9.8 9.7-25.6 9.7-35.401 0-9.7-9.8-9.7-25.6 0-35.401l334.9-334.8c4.9-4.9 11.4-7.3 17.8-7.299 6.5 0 12.9 2.4 17.9 7.3l336.3 336.3c9.7 9.8 9.7 25.701 0 35.5v0zM865.7 571.1z"  horiz-adv-x="1024" />

    
    <glyph glyph-name="bofang" unicode="&#58880;" d="M512 896C229.248 896 0 666.752 0 384s229.248-512 512-512 512 229.248 512 512S794.752 896 512 896z m0-960C264.576-64 64 136.576 64 384S264.576 832 512 832s448-200.576 448-448-200.576-448-448-448zM384 640l384-256-384-256z"  horiz-adv-x="1024" />

    
    <glyph glyph-name="EPCzuodaohangtubiao-" unicode="&#59259;" d="M853.333333 156.444444h-204.8L512 8.533333 375.466667 156.444444H170.666667c-62.577778 0-113.777778 51.2-113.777778 113.777778V725.333333c0 62.577778 51.2 113.777778 113.777778 113.777778h682.666666c62.577778 0 113.777778-51.2 113.777778-113.777778v-455.111111c0-62.577778-51.2-113.777778-113.777778-113.777778z m0 625.777778H170.666667c-34.133333 0-56.888889-22.755556-56.888889-56.888889v-455.111111c0-34.133333 22.755556-56.888889 56.888889-56.888889h227.555555l113.777778-125.155555 113.777778 125.155555h227.555555c34.133333 0 56.888889 22.755556 56.888889 56.888889V725.333333c0 34.133333-22.755556 56.888889-56.888889 56.888889zM768 554.666667h-512c-17.066667 0-28.444444 11.377778-28.444444 28.444444s11.377778 28.444444 28.444444 28.444445h512c17.066667 0 28.444444-11.377778 28.444444-28.444445s-11.377778-28.444444-28.444444-28.444444zM711.111111 384h-398.222222c-17.066667 0-28.444444 11.377778-28.444445 28.444444s11.377778 28.444444 28.444445 28.444445h398.222222c17.066667 0 28.444444-11.377778 28.444445-28.444445s-11.377778-28.444444-28.444445-28.444444z"  horiz-adv-x="1024" />

    
    <glyph glyph-name="mima" unicode="&#59563;" d="M741.152662 480.741039H158.893948a158.793254 158.793254 0 0 1-158.793255-158.843601v-291.104184a158.793254 158.793254 0 0 1 158.793255-158.793254h582.258714a158.793254 158.793254 0 0 1 158.793255 158.793254v291.104184a158.793254 158.793254 0 0 1-158.793255 158.843601z m105.878952-449.947785a105.878952 105.878952 0 0 0-105.878952-105.878951H158.893948a105.878952 105.878952 0 0 0-105.878952 105.878951v291.104184c0 58.502778 47.42652 105.878952 105.878952 105.878952h582.258714c58.452431 0 105.878952-47.376174 105.878952-105.878952v-291.104184zM502.962781 877.724175H397.083829A264.621859 264.621859 0 0 1 132.411623 613.051969v-105.878952h52.964649V639.534294c0 80.051133 91.42947 185.275579 185.275579 185.275579h158.793254c96.564826 0 185.275579-110.259108 185.275579-185.275579v-131.505384h52.863956V613.051969A264.672206 264.672206 0 0 1 502.962781 877.724175M450.048478 242.500811a79.396627 79.396627 0 1 1-0.050346-158.742907 79.396627 79.396627 0 0 1 0 158.742907"  horiz-adv-x="1144" />

    
    <glyph glyph-name="zixun" unicode="&#58882;" d="M667.648 471.552H183.296c-9.728 0-17.408-7.68-17.408-17.408s8.192-17.408 17.408-17.408h484.352c9.728 0 17.408 7.68 17.408 17.408 0 9.216-7.68 17.408-17.408 17.408zM596.48 306.688H253.952c-9.728 0-17.408-7.68-17.408-17.408s8.192-17.408 17.408-17.408h341.504c9.728 0 17.408 7.68 17.408 17.408 1.024 9.728-6.656 17.408-16.384 17.408zM942.592 834.56H252.928c-44.544 0-80.384-35.328-80.384-79.36V711.68c0-14.848 11.776-26.624 26.624-26.624s26.624 11.776 26.624 26.624v43.52c0 14.848 12.288 26.112 27.648 26.112h690.176c15.36 0 27.648-11.776 27.648-26.112v-422.912c0-14.848-12.288-26.112-27.648-26.112H901.12c-14.848 0-26.624-11.776-26.624-26.624 0-14.848 11.776-26.624 26.624-26.624h42.496c44.544 0 80.384 35.328 80.384 79.36V754.688c-1.024 44.032-36.864 79.872-81.408 79.872zM770.048 662.016H80.384C35.84 662.016 0 626.688 0 582.656v-422.912c0-43.52 35.84-79.36 80.384-79.36h226.304l96.256-145.408c5.12-7.68 13.312-11.776 22.528-11.776 8.704 0 16.896 4.608 22.528 11.776l96.256 145.408h226.304c18.944 0 36.864 6.656 51.712 18.944 17.92 15.36 28.672 36.864 28.672 60.416v422.912c-0.512 44.032-36.352 79.36-80.896 79.36z m27.648-501.76c0-9.728-6.144-16.384-9.728-19.456-3.584-3.072-9.728-6.656-17.92-6.656h-240.64c-8.704 0-16.896-4.608-22.528-11.776l-81.408-123.904L343.04 121.856c-5.12 7.68-13.312 11.776-22.528 11.776H80.384c-15.36 0-27.648 11.776-27.648 26.112v422.912c0 14.848 12.288 26.112 27.648 26.112h690.176c15.36 0 27.648-11.776 27.648-26.112v-422.912h-0.512z"  horiz-adv-x="1024" />

    
    <glyph glyph-name="zhanghao" unicode="&#58986;" d="M609.792 336.384h-195.584c-183.296 0-332.288-146.944-332.288-327.68v-19.456c0-96.768 146.944-96.768 332.288-96.768h195.584c178.176 0 332.288 0 332.288 96.768v19.456c0 180.736-148.992 327.68-332.288 327.68z m281.088-327.68v-19.456c0-44.544-162.816-44.544-281.088-44.544h-195.584c-125.44 0-281.088 0-281.088 44.544v19.456c0 152.064 125.952 275.968 281.088 275.968h195.584c155.136-0.512 281.088-123.904 281.088-275.968zM502.272 354.816c145.408 0 264.192 116.736 264.192 260.608 0 143.36-118.272 260.608-264.192 260.608-145.408 0-264.192-116.736-264.192-260.608 0-143.872 118.784-260.608 264.192-260.608z m0 468.48c117.248 0 212.992-93.696 212.992-208.384 0-115.2-95.232-208.384-212.992-208.384-117.248 0-212.992 93.696-212.992 208.384 0 115.2 95.744 208.384 212.992 208.384z"  horiz-adv-x="1024" />

    
    <glyph glyph-name="shanchu1" unicode="&#58884;" d="M512 864C246.4 864 32 649.6 32 384s214.4-480 480-480 480 214.4 480 480S777.6 864 512 864m201.6-681.6c-12.8-12.8-35.2-12.8-48 0L512 336l-153.6-153.6c-12.8-12.8-35.2-12.8-48 0-12.8 12.8-12.8 35.2 0 48l153.6 153.6-153.6 153.6c-12.8 12.8-12.8 35.2 0 48 12.8 12.8 35.2 12.8 48 0l153.6-153.6 153.6 153.6c12.8 12.8 35.2 12.8 48 0 12.8-12.8 12.8-35.2 0-48L560 384l153.6-153.6c16-12.8 16-35.2 0-48m0 0z"  horiz-adv-x="1024" />

    
    <glyph glyph-name="bangzhufankui" unicode="&#58917;" d="M567.637 613.717a27.05 27.05 0 0 0-27.136-27.136h-58.709a27.05 27.05 0 0 0-27.136 27.136v58.71c0 15.018 12.117 27.136 27.136 27.136h58.71c15.018 0 27.135-12.118 27.135-27.136v-58.88z m-1.45-505.77a27.136 27.136 0 0 0-27.136-27.136h-57.259a27.136 27.136 0 0 0-27.136 27.136v361.13c0 14.934 12.117 27.051 27.136 27.051h57.259c15.018 0 27.136-12.117 27.136-27.05v-361.131zM512 896a512 512 0 1 1 0-1024A512 512 0 0 1 512 896z"  horiz-adv-x="1024" />

    
    <glyph glyph-name="qiehuan" unicode="&#58918;" d="M512 896C229.53472 896 0.3072 666.77248 0.3072 384.3072c0-282.4704 229.22752-511.68768 511.6928-511.68768 282.4704 0 511.68768 229.2224 511.68768 511.68768C1023.68768 666.77248 794.4704 896 512 896z m292.61824-626.7136H310.41024l132.49536-159.31904a28.4416 28.4416 0 0 0-3.47648-40.07936c-0.06144-0.0512-0.11776-0.10752-0.18432-0.14848-5.28384-4.48-11.78624-6.50752-18.28864-6.50752-8.13056 0-16.26112 3.6608-21.94944 10.56768l-210.5344 253.6192h616.55552c15.8464 0 28.86144-13.02016 28.86144-28.86144-0.4096-16.67072-13.40928-29.27104-29.27104-29.27104zM219.37152 442.01984c-15.85152 0-28.85632 13.0048-28.85632 28.85632s13.0048 28.85632 28.85632 28.85632h494.21824l-132.50048 159.72864a28.45696 28.45696 0 0 0 3.65568 40.23296 28.44672 28.44672 0 0 0 40.23808-3.65568l210.5344-253.61408-616.14592-0.40448z"  horiz-adv-x="1024" />

    
    <glyph glyph-name="xiugaimima" unicode="&#58919;" d="M511.99488 895.84128C229.29408 895.84128 0.10752 666.65472 0.10752 383.95904c0-282.7008 229.18656-511.91808 511.88736-511.91808s511.88736 229.2224 511.88736 511.91808c0 282.7008-229.18656 511.88224-511.88736 511.88224z m0-214.70208c99.5072 0 180.67968-92.91264 184.99072-191.80032h-52.992c-4.24448 69.51936-61.7216 138.66496-131.99872 138.66496-62.2848 0-114.50368-43.24352-128.54272-101.44768-1.9968-7.47008-3.36896-29.29152-4.0448-37.2224H327.00928c4.29568 98.8928 85.4784 191.80544 184.9856 191.80544z m271.72864-573.94688H245.38624V486.85056h538.3424v-379.65824h-0.00512zM304.17408 435.71712h421.95456v-276.21888H304.17408V435.71712z"  horiz-adv-x="1024" />

    
    <glyph glyph-name="yiwen" unicode="&#58920;" d="M512.08704 895.82592C229.36576 895.82592 0.18432 666.63424 0.18432 383.91808 0.18432 101.18656 229.37088-128 512.08704-128c282.7264 0 511.91296 229.19168 511.91296 511.91296C1024 666.63936 794.81344 895.82592 512.08704 895.82592z m49.68448-807.30112a25.58976 25.58976 0 0 0-25.6-25.59488H459.392c-14.13632 0-25.6 11.44832-25.6 25.59488v76.77952a25.6 25.6 0 0 0 25.6 25.60512h76.77952c14.14144 0 25.6-11.45344 25.6-25.60512v-76.77952z m126.87872 352.32256c-10.30144-14.6688-33.6384-33.36192-62.88384-56.15616l-32.39424-22.35904c-15.72864-12.19584-29.68576-26.40896-34.85184-42.6752-1.76128-5.55008-3.08736-14.65856-3.97312-24.49408-0.44544-4.95104-4.87936-15.04768-15.232-15.04768H455.99232c-13.54752 0-15.96416 10.60352-15.73888 15.7952 1.49504 34.01728 4.61312 64.2048 18.47296 80.45568 28.05248 32.90112 91.89376 73.84064 91.89376 73.84064 9.71776 7.33696 17.5872 15.3088 23.53152 23.99744 10.8288 14.91968 19.79904 31.30368 19.79904 49.20832 0 20.5824-6.02112 39.34208-18.08896 56.32-12.032 16.91136-34.0736 25.38496-66.00704 25.38496-31.44192 0-53.72928-10.43456-66.86208-31.29344-9.70752-15.41632-15.81568-29.58336-18.34496-45.0048-0.896-5.4528-4.39808-16.95232-16.06144-16.95232H327.31648c-17.30048 0-21.11488 11.2128-20.61312 16.61952 6.26688 68.12672 32.89088 114.67776 79.95904 144.5632 32.00512 20.5824 71.38816 30.90432 118.09792 30.90432 61.37344 0 112.32768-14.62784 152.95488-43.93984 40.54016-29.2608 60.88192-72.6272 60.88192-130.1248 0.00512-35.21536-12.35456-64.90624-29.94688-89.04192z"  horiz-adv-x="1024" />

    
    <glyph glyph-name="wodedingdan" unicode="&#58921;" d="M367.706578 450.863188h223.873927c8.713717 0 15.927364 7.413315 15.927365 16.423975s-7.116373 16.423975-15.927365 16.423974H367.706578c-8.713717 0-15.927364-7.413315-15.927365-16.423974 0-9.113053 7.116373-16.423975 15.927365-16.423975zM463.065976 549.32512h128.514529c8.713717 0 15.927364 7.413315 15.927365 16.429095s-7.116373 16.423975-15.927365 16.423974H463.065976c-8.713717 0-15.927364-7.413315-15.927364-16.423974s7.116373-16.429094 15.927364-16.429095zM367.706578 352.298862h223.873927c8.713717 0 15.927364 7.413315 15.927365 16.429094s-7.116373 16.423975-15.927365 16.423975H367.706578c-8.713717 0-15.927364-7.413315-15.927365-16.423975s7.116373-16.429094 15.927365-16.429094zM671.109813 220.978741c0-18.128832-14.319781-32.853069-31.849609-32.853069H384.83707v-32.853068h318.025078V549.32512h-31.752335v-328.346379zM512.849869 894.300262C230.483451 894.300262 1.699738 665.419275 1.699738 383.150131c0-282.366418 228.880987-511.150131 511.150131-511.150131s511.150131 228.880987 511.150131 511.150131c0 282.366418-228.783713 511.150131-511.150131 511.150131zM761.963882 127.226926c0-20.33542-16.029758-36.861788-35.755934-36.861788h-357.098575c-19.628902 0-35.761054 16.531488-35.761054 36.861788v36.861789h-35.65866c-19.731296 0-35.761054 16.526368-35.761055 36.856668V643.583785c0 20.33542 16.024639 36.861788 35.761055 36.861788h357.093454c19.634022 0 35.755935-16.531488 35.755935-36.861788v-36.861788h35.66378c19.731296 0 35.755935-16.526368 35.755934-36.861789v-442.633282zM607.50787 270.260904c0 9.015779-7.116373 16.429094-15.927365 16.429095H367.706578c-8.713717 0-15.927364-7.413315-15.927365-16.429095s7.111253-16.429094 15.927365-16.429094h223.873927c8.713717 0 15.927364 7.316041 15.927365 16.429094z"  horiz-adv-x="1024" />

    
    <glyph glyph-name="gerenxinxi" unicode="&#58922;" d="M512-128C229.232-128 0 101.232 0 384 0 666.768 229.232 896 512 896c282.768 0 512-229.232 512-512 0-282.768-229.232-512-512-512zM367.7 612.305c0 25.577-16.831 46.313-37.6 46.313-20.764 0-37.6-20.736-37.594-46.313v-52.028c0-25.581 16.83-46.313 37.594-46.313 20.769 0 37.604 20.732 37.6 46.313v52.028z m363.976 0c0 25.577-18.246 46.313-39.014 46.313-20.764 0-36.185-20.736-36.185-46.313v-52.028c0-25.581 16.836-46.313 37.6-46.313 20.768 0 37.599 20.732 37.599 46.313v52.028z m87.217-48.626c-1.69 42.39-40.793 39.592-40.793 39.592H755.67v-73.588s-0.512-32.294-31.763-32.359l-5.888-0.014c-10.128 0.019-28.243 0.037-48.388 0-4.673 0.005-7.773 0.01-8.662 0.01-31.81 1.038-30.33 31.52-30.33 31.52v74.431H393.36v-74.43s1.48-30.483-30.329-31.521c-0.889 0-3.993-0.005-8.662-0.01-20.145 0.042-38.26 0.019-48.388 0l-5.888 0.014c-31.251 0.065-31.763 32.359-31.763 32.359V603.27H245.9s-39.103 2.797-40.793-39.592c-0.246-1.717-0.307-2.736-0.307-2.736s0.065-391.746 0.065-409.107c0-42.068 42.52-42.454 42.52-42.454h529.23s42.52 0.386 42.52 42.454c0 17.361 0.065 409.107 0.065 409.107s-0.06 1.019-0.307 2.736z m-95.218-353.298H589.438c-15.924 0-28.83 12.935-28.83 28.9 0 15.96 12.906 28.9 28.83 28.9h134.237c15.923 0 28.83-12.94 28.83-28.9 0-15.965-12.912-28.9-28.83-28.9z m0 114.432H589.438c-15.924 0-28.83 12.94-28.83 28.905 0 15.96 12.906 28.9 28.83 28.9h134.237c15.923 0 28.83-12.94 28.83-28.9 0-15.966-12.912-28.905-28.83-28.905zM393.812 156.16c-57.549 0-119.73 7.308-119.73 39.461v8.844c0 23.594 42.436 47.504 78.612 60.616 2.61 0.959 15.099 7.778 8.117 26.145-17.915 18.343-31.455 48.067-31.455 77.32 0 44.81 29.556 68.288 64.116 68.288 34.537 0 64.26-23.478 64.26-68.287 0-29.138-13.614-58.74-31.422-77.13h0.093c-6.833-20.83 4.105-25.773 5.837-26.336 37.948-12.595 80.593-36.305 80.593-60.616v-8.844c0-32.153-61.393-39.461-119.021-39.461z"  horiz-adv-x="1024" />

    
    <glyph glyph-name="guanyuwomen" unicode="&#58925;" d="M512.018481 896C229.241944 896 0.013385 666.771442 0.013385 384.005095c0-282.771442 229.233654-512.005095 512.005096-512.005095 282.761251 0 512 229.233654 512 512.005095C1024.018481 666.771442 794.779731 896 512.018481 896z m225.860472-410.498836v-79.417527c0-19.434008-11.123345-36.396728-27.316654-44.834777v-155.247865h-40.809378l-14.990785 98.250274-14.970402-98.250274h-37.476961v140.165363a80.966541 80.966541 0 0 1 24.417348 57.884198V490.4896c0 16.264644-4.815191 31.423578-13.14114 44.136701a49.909835 49.909835 0 0 0 11.663462 1.380864h62.154177c27.749766 0 50.470333-22.740949 50.470333-50.506001z m-83.020003 166.539361c29.375211 0 53.181107-23.795705 53.181107-53.176012 0-29.365021-23.805896-53.196393-53.181107-53.196393-29.380307 0-53.186203 23.831373-53.186203 53.196393-0.005095 29.375211 23.805896 53.176012 53.186203 53.176012z m-141.974245 19.673493c31.973886 0 57.879103-25.895026 57.879103-57.874007 0-31.9586-25.905217-57.868912-57.879103-57.868912-31.9586 0-57.874007 25.910312-57.874007 57.868912 0 31.984077 25.915408 57.874007 57.874007 57.874007zM422.522173 490.4896c0 30.215959 24.748552 54.939034 54.959415 54.939034h67.616489c30.22615 0 54.944129-24.72817 54.944129-54.939034v-86.439044c0-21.232698-12.208674-39.764814-29.976473-48.890746v-168.832309h-40.768615l-16.330886 106.917618-16.305407-106.917618h-44.40676v168.939313c-17.620031 9.187078-29.731892 27.632571-29.731892 48.783742V490.4896z m-54.164527 161.550925c29.380307 0 53.196393-23.795705 53.196393-53.176012 0-29.365021-23.821182-53.196393-53.196393-53.196393-29.365021 0-53.170916 23.831373-53.170916 53.196393 0 29.375211 23.805896 53.176012 53.170916 53.176012zM285.347833 485.501164c0 27.765052 22.715471 50.506001 50.480524 50.506001h62.143986c4.010111 0 7.908123-0.478971 11.668558-1.380864a80.360184 80.360184 0 0 1-13.146236-44.141796v-86.439044c0-22.134591 9.080074-42.883223 24.417349-57.884198v-140.165363h-37.471866L368.439173 304.251269l-14.985689-98.250274h-40.788997v155.247865c-16.178022 8.432953-27.316654 25.400768-27.316654 44.829681V485.501164z m226.660457-389.220278c-161.576402 0-292.564877 40.401744-292.564878 90.224956 0 20.967736 23.184252 40.243785 62.087937 55.575964-9.324655-6.486495-14.415-13.477439-14.415-20.743536 0-33.843912 109.628391-61.247189 244.897036-61.247189 135.26355 0 244.907227 27.403276 244.907227 61.247189 0 7.271193-5.090345 14.257041-14.440477 20.743536 38.903684-15.332179 62.108318-34.608228 62.108318-55.575964-0.005095-49.823212-130.993571-90.224956-292.580163-90.224956z"  horiz-adv-x="1028" />

    
    <glyph glyph-name="shibai" unicode="&#58926;" d="M670.4 587.648L512 429.248l-158.4 158.4-45.248-45.248 158.4-158.4-158.4-158.4 45.312-45.248L512 338.752l158.4-158.4 45.248 45.248-158.4 158.4 158.4 158.4-45.248 45.248zM512 896C229.248 896 0 666.752 0 384s229.248-512 512-512 512 229.248 512 512S794.752 896 512 896z m0-944C273.408-48 80 145.408 80 384 80 622.656 273.408 816 512 816c238.656 0 432-193.344 432-432 0-238.592-193.344-432-432-432z"  horiz-adv-x="1024" />

    
    <glyph glyph-name="dui1" unicode="&#58927;" d="M512.83968 895.32416C229.9136 895.32416 1.1776 666.56256 1.1776 383.66208S229.9392-128 512.83968-128s511.6672 228.7616 511.6672 511.6672c0 282.89536-228.736 511.65696-511.6672 511.65696z m0-963.14368c-246.79936 0-451.4816 204.65664-451.4816 451.48672 0 246.81984 204.68224 451.45088 451.4816 451.45088 246.79936 0 451.4816-204.65664 451.4816-451.4816s-204.68224-451.456-451.4816-451.456zM782.47936 562.11456a40.94976 40.94976 0 0 1-57.90208 0l-260.51072-260.51072-144.72704 144.73216a40.94976 40.94976 0 0 1-57.90208 1.17248 40.94464 40.94464 0 0 1 0-59.07456l173.67552-173.67552a40.94976 40.94976 0 0 1 57.9072 0l289.4592 289.4592a40.94464 40.94464 0 0 1 0 57.89696z"  horiz-adv-x="1024" />

    
    <glyph glyph-name="gerenzhongxin1" unicode="&#58929;" d="M512 896C229.694107 896 0 666.311012 0 384c0-282.305893 229.694107-512 512-512 282.305893 0 512.005119 229.694107 512.005119 512 0 282.311012-229.699226 512-512.005119 512z m0-975.293915c-132.159085 0-251.249685 55.86227-335.711104 144.905081 56.870688 128.473496 186.460099 220.858931 335.711104 220.858931 149.373858 0 278.7278-92.49805 335.496111-221.084162-84.461418-88.81758-203.449641-144.67985-335.496111-144.67985zM365.764012 481.529903c0 80.658095 65.583012 146.348603 146.235988 146.348604 80.658095 0 146.353722-65.583012 146.353722-146.348604 0-80.658095-65.577893-146.348603-146.353722-146.348603-80.658095 0-146.235988 65.690508-146.235988 146.348603z m255.610966-161.423686c51.72622 35.079642 85.67971 94.397153 85.67971 161.428805 0 107.583372-87.471316 195.059807-195.054688 195.059807-107.583372 0-195.054688-87.476435-195.054688-195.059807 0-67.026534 34.071224-126.241667 85.689948-161.428805-113.173182-31.056208-208.466137-110.598388-260.975545-213.165264C83.673112 184.358801 48.823819 280.107336 48.823819 384c0 255.503469 207.795565 463.293915 463.288796 463.293915 255.513707 0 463.293915-207.795565 463.293916-463.293915 0-104.00016-34.854412-199.738458-92.948512-277.059047-52.719282 102.116414-148.247706 182.216552-261.083041 213.165264z"  horiz-adv-x="1024" />

    
    <glyph glyph-name="shouye1" unicode="&#58931;" d="M1023.682563 383.846402c0-47.083049-38.179458-85.267627-85.262507-85.267628h-28.466916v-398.111859a28.502755 28.502755 0 0 0-28.461795-28.461795h-284.377316a28.502755 28.502755 0 0 0-28.466915 28.461795V42.658133c0 31.390406-25.410306 56.933831-56.918471 56.933831-31.395526 0-56.923591-25.430786-56.923591-56.933831v-142.186098A28.502755 28.502755 0 0 0 426.343257-127.98976H142.196338a28.502755 28.502755 0 0 0-28.461795 28.461795v398.111859h-28.466916C38.189698 298.578774 0.00512 336.763352 0.00512 383.846402c0 49.427986 47.441446 76.251397 49.663503 77.306106l445.307547 315.07141c0.471035 0.348157 1.172468 0.471035 1.643504 0.819192 1.167348 0.706553 2.457575 1.054709 3.742682 1.638383 2.109419 0.942071 4.101079 1.873901 6.328257 2.227178 1.756142 0.353276 3.394526 0.117759 5.150669 0.235518 1.761262 0 3.512285 0.112639 5.155788-0.235518 2.227178-0.348157 4.213718-1.279987 6.318017-2.227178 1.290227-0.583674 2.585574-0.936951 3.747802-1.638383 0.583674-0.348157 1.172468-0.348157 1.638384-0.819192l445.312667-315.07141c2.242538-1.054709 49.668623-29.516505 49.668623-77.306106z m-85.262507 34.088619L511.846402 719.648484 85.272747 417.935021s-28.456675-13.706103-28.456675-34.088619a28.487395 28.487395 0 0 1 28.456675-28.456676h56.923591a28.497635 28.497635 0 0 0 28.461795-28.466915v-398.106739h227.458846v113.724303c0 62.791052 50.948611 113.724303 113.724303 113.724302 62.780812 0 113.729423-50.933251 113.729422-113.724302v-113.724303h227.458846v398.219378a28.487395 28.487395 0 0 0 28.461795 28.461795h56.923591a28.507875 28.507875 0 0 1 28.466915 28.466915c-0.117759 19.327807-28.461795 33.97086-28.461795 33.970861z"  horiz-adv-x="1024" />

    
    <glyph glyph-name="weike1" unicode="&#58932;" d="M920.75008 792.75008H108.32384C48.74752 792.75008 0 744.00256 0 684.42624v-704.10752C-0.00512-79.2576 48.7424-128 108.32384-128h812.43136c59.58144 0 108.32384 48.7424 108.32384 108.31872V684.43136c0 59.57632-48.74752 108.31872-108.32896 108.31872z m54.15936-812.43136c0-29.78304-24.26368-54.15936-54.15936-54.15936H108.32384c-29.89568 0-54.15936 24.37632-54.15936 54.15936V684.43136c0 29.89568 24.26368 54.16448 54.15936 54.16448h812.43136c29.89568 0 54.15936-24.2688 54.15936-54.16448v-704.11264zM678.64576 403.90656L461.99808 539.31008a53.504 53.504 0 0 1-28.70272 8.23296c-8.99072 0-18.08896-2.27328-26.2144-6.71744-17.22368-9.64096-27.94496-27.6224-27.94496-47.44704v-270.81216c0-19.71712 10.7264-37.80608 27.94496-47.44704a53.6576 53.6576 0 0 1 26.2144-6.72256c10.07616 0 19.93216 2.816 28.70272 8.23296l216.64768 135.40352a54.0928 54.0928 0 0 1 25.46176 45.93664c0 18.74944-9.64608 36.07552-25.46176 45.93664z m-245.3504-181.33504V493.37856l216.64768-135.3984-216.64768-135.40864z"  horiz-adv-x="1029" />

    
    <glyph glyph-name="vip" unicode="&#58928;" d="M853.79072 834.56512a108.50304 108.50304 0 0 0 77.2096-31.96928c20.62848-20.61824 31.98976-48.0512 31.98976-77.25056v-682.5984c0-60.21632-48.99328-109.19936-109.19936-109.19936H171.1872c-60.22656 0-109.22496 48.98304-109.22496 109.19936V725.3504c0 29.19936 11.36128 56.6272 31.98976 77.24544a108.53376 108.53376 0 0 0 77.23008 31.96928h682.60864m0 61.43488H171.1872C76.94848 896 0.53248 819.67104 0.53248 725.3504v-682.5984c0-94.16192 76.416-170.63936 170.65472-170.63936h682.60352c94.21824 0 170.63936 76.48256 170.63936 170.63936V725.3504c0 94.32064-76.42112 170.6496-170.63936 170.6496zM835.54304 627.37408h-45.99808L469.63712 67.53792h-45.76256L241.11104 536.7808h-45.75744V622.06464H332.4928l115.74784-309.20704 204.2368 394.496h183.0656v-79.97952z"  horiz-adv-x="1024" />

    


  </font>
</defs>
</svg>
